# xmcd
# 
# Track frame offsets:
#     150
#     16369
#     33734
#     49236
#     72535
#     90758
#     111348
#     128507
#     147167
#     166162
#     182524
#     198412
#     224111
#     238355
#     254205
#     275004
#     300948
#     317419
# 
# Disc length: 4505
# 
# Revision: 0
# Processed by: cddbd v1.5.2PL0 Copyright (c) Steve Scherf et al.
# Submitted via: fre:ac v1.0.17
# 
DISCID=0c119712
DTITLE=Rolling Stones - Jump Back
DYEAR=1993
DGENRE=Rock
TTITLE0=Start me up
TTITLE1=Brown sugar
TTITLE2=Harlem shuffle
TTITLE3=It's only Rock'n Roll
TTITLE4=Mixed emotions
TTITLE5=Angie
TTITLE6=Tumbling dice
TTITLE7=Fool to cry
TTITLE8=Rock and a hard place
TTITLE9=Miss you
TTITLE10=Hot stuff
TTITLE11=Emotional rescue
TTITLE12=Respectable
TTITLE13=Beast of burden
TTITLE14=Waiting on a friend
TTITLE15=Wild horses
TTITLE16=Bitch
TTITLE17=Undercover of the night
EXTD=
EXTT0=
EXTT1=
EXTT2=
EXTT3=
EXTT4=
EXTT5=
EXTT6=
EXTT7=
EXTT8=
EXTT9=
EXTT10=
EXTT11=
EXTT12=
EXTT13=
EXTT14=
EXTT15=
EXTT16=
EXTT17=
PLAYORDER=
